<svg width="512" height="512" viewBox="0 0 512 512" fill="none" xmlns="http://www.w3.org/2000/svg">
  <rect width="512" height="512" rx="128" fill="#020617"/>
  <rect x="64" y="64" width="384" height="384" rx="80" fill="#10B981" fill-opacity="0.1" stroke="#10B981" stroke-width="32"/>
  <path d="M180 380V132H276C300.913 132 324.806 141.897 342.422 159.513C360.038 177.129 369.935 201.022 369.935 225.935C369.935 243.6 364.5 259.8 355.2 273C372 284 382 303 382 324C382 368 346 404 302 404H180V380Z" fill="#10B981"/>
  <path d="M260 256H192V156H260C278.565 156 296.37 163.375 309.497 176.503C322.625 189.63 330 207.435 330 226C330 244.565 322.625 262.37 309.497 275.497C296.37 288.625 278.565 296 260 296V256Z" fill="#020617"/>
</svg>